# xmcd CD database file
#
# Track frame offsets:
#	150
#	900
#	1650
#	2400
#	3150
#	3900
#	4650
#	5400
#	6150
#	6900
#	213042
#	332550
#
# Disc length: 4440 seconds
#
# Revision: 3
# Processed by: cddbd v1.5.2PL0 Copyright (c) Steve Scherf et al.
# Submitted via: CDex 1.70beta2
#
DISCID=5e11560c
DTITLE=L'Arc-en-Ciel - SMILE
DYEAR=2004
DGENRE=JPop
TTITLE0=謗･蜷ｻ
TTITLE1=READY STEADY GO
TTITLE2=Love Boy
TTITLE3=Feeling Fine
TTITLE4=Time Goes on
TTITLE5=Comming Closer
TTITLE6=豌ｸ驕
TTITLE7=REVELATION
TTITLE8=迸ｳ縺ｮ菴丈ｺｺ
TTITLE9=Spirit dreams inside
TTITLE10=?
TTITLE11=?
EXTD=YEAR: 2004
EXTT0=
EXTT1=
EXTT2=
EXTT3=
EXTT4=
EXTT5=
EXTT6=
EXTT7=
EXTT8=
EXTT9=
EXTT10=
EXTT11=
PLAYORDER=
